<svg xmlns="http://www.w3.org/2000/svg" viewBox="0 0 1200 630" width="1200" height="630">
  <defs>
    <linearGradient id="bg" x1="0" y1="0" x2="1" y2="1">
      <stop offset="0%" stop-color="#1a4f7a"/>
      <stop offset="100%" stop-color="#2e75b6"/>
    </linearGradient>
    <linearGradient id="icon" x1="0" y1="0" x2="1" y2="1">
      <stop offset="0%" stop-color="#2e75b6"/>
      <stop offset="100%" stop-color="#5a9fd4"/>
    </linearGradient>
    <radialGradient id="glow" cx="0.5" cy="0.5" r="0.5">
      <stop offset="0%" stop-color="rgba(255,255,255,0.15)"/>
      <stop offset="100%" stop-color="rgba(255,255,255,0)"/>
    </radialGradient>
  </defs>
  <rect width="1200" height="630" fill="url(#bg)"/>
  <circle cx="1050" cy="120" r="280" fill="url(#glow)"/>
  <circle cx="150" cy="510" r="220" fill="url(#glow)"/>

  <g transform="translate(80, 200)">
    <rect width="120" height="120" rx="26" fill="url(#icon)"/>
    <path d="M75 22 L46 70 L60 70 L48 98 L80 50 L66 50 L78 22 Z" fill="#fff"/>
  </g>

  <g transform="translate(80, 100)" font-family="-apple-system, BlinkMacSystemFont, 'PingFang TC', 'Microsoft JhengHei', 'Segoe UI', sans-serif">
    <text x="230" y="40" font-size="42" font-weight="700" fill="rgba(255,255,255,0.7)">做單快快 Receipt Flash</text>
    <text x="0" y="180" font-size="76" font-weight="800" fill="#fff">上傳 Excel</text>
    <text x="0" y="270" font-size="76" font-weight="800" fill="#fff">30 秒出報告</text>
    <text x="0" y="350" font-size="32" font-weight="500" fill="rgba(255,255,255,0.85)">專為港澳影視行業設計的現金支出報告工具</text>
    <text x="0" y="400" font-size="22" font-weight="500" fill="rgba(255,255,255,0.6)">receiptflash.com</text>
  </g>

  <g transform="translate(800, 380)">
    <rect width="320" height="200" rx="14" fill="rgba(255,255,255,0.95)"/>
    <rect x="20" y="20" width="60" height="60" rx="8" fill="#e8f2fb"/>
    <text x="32" y="60" font-size="32" fill="#2e75b6">📊</text>
    <rect x="100" y="32" width="180" height="14" rx="3" fill="#1a1a2e"/>
    <rect x="100" y="54" width="120" height="10" rx="3" fill="#9494b0"/>
    <line x1="20" y1="100" x2="300" y2="100" stroke="#e2e4ec" stroke-width="1"/>
    <rect x="20" y="118" width="80" height="10" rx="3" fill="#27ae60"/>
    <rect x="110" y="118" width="180" height="10" rx="3" fill="#e2e4ec"/>
    <rect x="20" y="140" width="80" height="10" rx="3" fill="#27ae60"/>
    <rect x="110" y="140" width="180" height="10" rx="3" fill="#e2e4ec"/>
    <rect x="20" y="162" width="80" height="10" rx="3" fill="#ff6b35"/>
    <rect x="110" y="162" width="180" height="10" rx="3" fill="#e2e4ec"/>
  </g>
</svg>
