<svg xmlns="http://www.w3.org/2000/svg" viewBox="0 0 1200 630" width="1200" height="630">
  <defs>
    <radialGradient id="blob1" cx="0.5" cy="0.5" r="0.5">
      <stop offset="0%" stop-color="rgba(212,255,0,0.18)"/>
      <stop offset="100%" stop-color="rgba(212,255,0,0)"/>
    </radialGradient>
    <radialGradient id="blob2" cx="0.5" cy="0.5" r="0.5">
      <stop offset="0%" stop-color="rgba(46,80,255,0.15)"/>
      <stop offset="100%" stop-color="rgba(46,80,255,0)"/>
    </radialGradient>
  </defs>
  <rect width="1200" height="630" fill="#FFFEF7"/>

  <circle cx="1050" cy="120" r="320" fill="url(#blob1)"/>
  <circle cx="150" cy="510" r="260" fill="url(#blob2)"/>

  <!-- Brand mark -->
  <g transform="translate(80, 200)">
    <rect x="0" y="0" width="120" height="120" rx="26" fill="#D4FF00" stroke="#0A0A0A" stroke-width="6"/>
    <path d="M75 22 L46 70 L60 70 L48 98 L80 50 L66 50 L78 22 Z" fill="#0A0A0A"/>
  </g>

  <g transform="translate(80, 100)" font-family="'Inter', 'Noto Sans TC', sans-serif">
    <text x="230" y="40" font-size="38" font-weight="800" fill="#0A0A0A" letter-spacing="-1">做單快快 ReceiptFlash</text>
    <text x="0" y="200" font-size="86" font-weight="900" fill="#0A0A0A" letter-spacing="-3">上傳 Excel</text>
    <text x="0" y="295" font-size="86" font-weight="900" fill="#0A0A0A" letter-spacing="-3">30 秒出報告</text>
    <text x="0" y="370" font-size="30" font-weight="500" fill="#2D2D2D">影視製作、廣告 agency、freelancer 專用</text>
    <text x="0" y="420" font-size="22" font-weight="600" fill="#6B6B70">receiptflash.com</text>
  </g>

  <!-- Pill CTA -->
  <g transform="translate(800, 380)">
    <rect x="0" y="0" width="320" height="220" rx="20" fill="#FFFFFF" stroke="#0A0A0A" stroke-width="4"/>
    <rect x="20" y="20" width="60" height="60" rx="12" fill="#E8F2FB" stroke="#0A0A0A" stroke-width="2.5"/>
    <text x="50" y="60" text-anchor="middle" font-family="sans-serif" font-size="32" fill="#2E50FF">📊</text>
    <rect x="100" y="32" width="180" height="14" rx="3" fill="#0A0A0A"/>
    <rect x="100" y="54" width="120" height="10" rx="3" fill="#9494B0"/>
    <line x1="20" y1="100" x2="300" y2="100" stroke="#E2E4EC" stroke-width="1.5"/>
    <rect x="20" y="118" width="80" height="10" rx="3" fill="#27AE60"/>
    <rect x="110" y="118" width="180" height="10" rx="3" fill="#E2E4EC"/>
    <rect x="20" y="140" width="80" height="10" rx="3" fill="#27AE60"/>
    <rect x="110" y="140" width="180" height="10" rx="3" fill="#E2E4EC"/>
    <rect x="20" y="162" width="80" height="10" rx="3" fill="#FF6B35"/>
    <rect x="110" y="162" width="180" height="10" rx="3" fill="#E2E4EC"/>
    <rect x="20" y="184" width="280" height="22" rx="6" fill="#D4FF00" stroke="#0A0A0A" stroke-width="2"/>
    <text x="160" y="200" text-anchor="middle" font-family="'Inter', sans-serif" font-size="13" font-weight="800" fill="#0A0A0A">合計 HK$ 6,680</text>
  </g>

  <!-- Yellow accent blob -->
  <circle cx="1000" cy="500" r="40" fill="#D4FF00" stroke="#0A0A0A" stroke-width="4"/>
  <text x="1000" y="510" text-anchor="middle" font-family="'Inter', sans-serif" font-size="24" font-weight="900" fill="#0A0A0A">⚡</text>
</svg>